<mxfile host="app.diagrams.net" modified="2023-12-04T08:20:36.337Z" agent="Mozilla/5.0 (Macintosh; Intel Mac OS X 10_15_7) AppleWebKit/537.36 (KHTML, like Gecko) Chrome/117.0.0.0 Safari/537.36" version="22.1.5" etag="cu8WWCwh2igt2pY1ccTF" type="github">
  <diagram name="第 1 页" id="Q-1FixevhGr2c2V_rM2-">
    <mxGraphModel>
      <root>
        <mxCell id="0" />
        <mxCell id="1" parent="0" />
      </root>
    </mxGraphModel>
  </diagram>
</mxfile>
